<svg width="14" height="13" viewBox="0 0 14 13" fill="none" xmlns="http://www.w3.org/2000/svg">
<path d="M1.53469 6.49998L6.81374 11.7778C6.93326 11.8973 7.0004 12.0594 7.0004 12.2284C7.0004 12.3974 6.93326 12.5595 6.81374 12.679C6.69422 12.7985 6.53213 12.8657 6.36311 12.8657C6.19409 12.8657 6.03199 12.7985 5.91247 12.679L0.184063 6.95061C0.124789 6.89149 0.0777616 6.82125 0.0456743 6.74393C0.013587 6.6666 -0.00292969 6.5837 -0.00292969 6.49998C-0.00292969 6.41626 0.013587 6.33336 0.0456743 6.25603C0.0777616 6.17871 0.124789 6.10847 0.184063 6.04934L5.91247 0.320936C6.03199 0.20142 6.19409 0.134277 6.36311 0.134277C6.53213 0.134277 6.69422 0.20142 6.81374 0.320936C6.93326 0.440452 7.0004 0.60255 7.0004 0.771571C7.0004 0.940592 6.93326 1.10269 6.81374 1.22221L1.53469 6.49998Z" fill="white"/>
<path d="M0.63356 5.86346H13.3634C13.5322 5.86346 13.6941 5.93052 13.8134 6.04989C13.9328 6.16925 13.9998 6.33115 13.9998 6.49995C13.9998 6.66876 13.9328 6.83066 13.8134 6.95002C13.6941 7.06939 13.5322 7.13644 13.3634 7.13644H0.63356C0.464753 7.13644 0.302859 7.06939 0.183494 6.95002C0.064129 6.83066 -0.00292969 6.66876 -0.00292969 6.49995C-0.00292969 6.33115 0.064129 6.16925 0.183494 6.04989C0.302859 5.93052 0.464753 5.86346 0.63356 5.86346Z" fill="white"/>
</svg>
